<svg xmlns="http://www.w3.org/2000/svg" width="714" height="636" viewBox="0 0 714 636">
<rect width="100%" height="100%" fill="#fbfaf8"/>
<text x="24" y="28" font-family="Arial, sans-serif" font-size="19" font-weight="700" fill="#20242a">Hazardous NFT Operation Matrix</text>
<text x="24" y="50" font-family="Arial, sans-serif" font-size="12" fill="#5d6470">Pending cells distinguish executable hazards from blocked operations.</text>
<text x="24" y="88" font-family="Arial, sans-serif" font-size="15" font-weight="700" fill="#20242a">Baseline</text>
<text x="268" y="88" font-family="Arial, sans-serif" font-size="11" font-weight="700" text-anchor="middle" fill="#2c3138">ACTIVE</text>
<text x="384" y="88" font-family="Arial, sans-serif" font-size="11" font-weight="700" text-anchor="middle" fill="#2c3138">PENDING_OUT</text>
<text x="500" y="88" font-family="Arial, sans-serif" font-size="11" font-weight="700" text-anchor="middle" fill="#2c3138">PENDING_IN</text>
<text x="616" y="88" font-family="Arial, sans-serif" font-size="11" font-weight="700" text-anchor="middle" fill="#2c3138">FINALIZED</text>
<text x="24" y="126" font-family="Arial, sans-serif" font-size="11" fill="#2c3138">transferFrom</text>
<rect x="210" y="104" width="112" height="30" rx="2" fill="#e7ece6" stroke="#6f7f69" stroke-width="1"/>
<text x="266" y="124" font-family="Arial, sans-serif" font-size="11" font-weight="700" text-anchor="middle" fill="#20242a">ALLOW</text>
<rect x="326" y="104" width="112" height="30" rx="2" fill="#ead9cf" stroke="#8a6258" stroke-width="1"/>
<text x="382" y="124" font-family="Arial, sans-serif" font-size="11" font-weight="700" text-anchor="middle" fill="#20242a">RISK</text>
<rect x="442" y="104" width="112" height="30" rx="2" fill="#ead9cf" stroke="#8a6258" stroke-width="1"/>
<text x="498" y="124" font-family="Arial, sans-serif" font-size="11" font-weight="700" text-anchor="middle" fill="#20242a">RISK</text>
<rect x="558" y="104" width="112" height="30" rx="2" fill="#e7ece6" stroke="#6f7f69" stroke-width="1"/>
<text x="614" y="124" font-family="Arial, sans-serif" font-size="11" font-weight="700" text-anchor="middle" fill="#20242a">ALLOW</text>
<text x="24" y="160" font-family="Arial, sans-serif" font-size="11" fill="#2c3138">safeTransferFrom</text>
<rect x="210" y="138" width="112" height="30" rx="2" fill="#e7ece6" stroke="#6f7f69" stroke-width="1"/>
<text x="266" y="158" font-family="Arial, sans-serif" font-size="11" font-weight="700" text-anchor="middle" fill="#20242a">ALLOW</text>
<rect x="326" y="138" width="112" height="30" rx="2" fill="#ead9cf" stroke="#8a6258" stroke-width="1"/>
<text x="382" y="158" font-family="Arial, sans-serif" font-size="11" font-weight="700" text-anchor="middle" fill="#20242a">RISK</text>
<rect x="442" y="138" width="112" height="30" rx="2" fill="#ead9cf" stroke="#8a6258" stroke-width="1"/>
<text x="498" y="158" font-family="Arial, sans-serif" font-size="11" font-weight="700" text-anchor="middle" fill="#20242a">RISK</text>
<rect x="558" y="138" width="112" height="30" rx="2" fill="#e7ece6" stroke="#6f7f69" stroke-width="1"/>
<text x="614" y="158" font-family="Arial, sans-serif" font-size="11" font-weight="700" text-anchor="middle" fill="#20242a">ALLOW</text>
<text x="24" y="194" font-family="Arial, sans-serif" font-size="11" fill="#2c3138">approve</text>
<rect x="210" y="172" width="112" height="30" rx="2" fill="#e7ece6" stroke="#6f7f69" stroke-width="1"/>
<text x="266" y="192" font-family="Arial, sans-serif" font-size="11" font-weight="700" text-anchor="middle" fill="#20242a">ALLOW</text>
<rect x="326" y="172" width="112" height="30" rx="2" fill="#ead9cf" stroke="#8a6258" stroke-width="1"/>
<text x="382" y="192" font-family="Arial, sans-serif" font-size="11" font-weight="700" text-anchor="middle" fill="#20242a">RISK</text>
<rect x="442" y="172" width="112" height="30" rx="2" fill="#ead9cf" stroke="#8a6258" stroke-width="1"/>
<text x="498" y="192" font-family="Arial, sans-serif" font-size="11" font-weight="700" text-anchor="middle" fill="#20242a">RISK</text>
<rect x="558" y="172" width="112" height="30" rx="2" fill="#e7ece6" stroke="#6f7f69" stroke-width="1"/>
<text x="614" y="192" font-family="Arial, sans-serif" font-size="11" font-weight="700" text-anchor="middle" fill="#20242a">ALLOW</text>
<text x="24" y="228" font-family="Arial, sans-serif" font-size="11" fill="#2c3138">setApprovalForAll</text>
<rect x="210" y="206" width="112" height="30" rx="2" fill="#e7ece6" stroke="#6f7f69" stroke-width="1"/>
<text x="266" y="226" font-family="Arial, sans-serif" font-size="11" font-weight="700" text-anchor="middle" fill="#20242a">ALLOW</text>
<rect x="326" y="206" width="112" height="30" rx="2" fill="#ead9cf" stroke="#8a6258" stroke-width="1"/>
<text x="382" y="226" font-family="Arial, sans-serif" font-size="11" font-weight="700" text-anchor="middle" fill="#20242a">RISK</text>
<rect x="442" y="206" width="112" height="30" rx="2" fill="#ead9cf" stroke="#8a6258" stroke-width="1"/>
<text x="498" y="226" font-family="Arial, sans-serif" font-size="11" font-weight="700" text-anchor="middle" fill="#20242a">RISK</text>
<rect x="558" y="206" width="112" height="30" rx="2" fill="#e7ece6" stroke="#6f7f69" stroke-width="1"/>
<text x="614" y="226" font-family="Arial, sans-serif" font-size="11" font-weight="700" text-anchor="middle" fill="#20242a">ALLOW</text>
<text x="24" y="262" font-family="Arial, sans-serif" font-size="11" fill="#2c3138">list(tokenId)</text>
<rect x="210" y="240" width="112" height="30" rx="2" fill="#e7ece6" stroke="#6f7f69" stroke-width="1"/>
<text x="266" y="260" font-family="Arial, sans-serif" font-size="11" font-weight="700" text-anchor="middle" fill="#20242a">ALLOW</text>
<rect x="326" y="240" width="112" height="30" rx="2" fill="#ead9cf" stroke="#8a6258" stroke-width="1"/>
<text x="382" y="260" font-family="Arial, sans-serif" font-size="11" font-weight="700" text-anchor="middle" fill="#20242a">RISK</text>
<rect x="442" y="240" width="112" height="30" rx="2" fill="#ead9cf" stroke="#8a6258" stroke-width="1"/>
<text x="498" y="260" font-family="Arial, sans-serif" font-size="11" font-weight="700" text-anchor="middle" fill="#20242a">RISK</text>
<rect x="558" y="240" width="112" height="30" rx="2" fill="#e7ece6" stroke="#6f7f69" stroke-width="1"/>
<text x="614" y="260" font-family="Arial, sans-serif" font-size="11" font-weight="700" text-anchor="middle" fill="#20242a">ALLOW</text>
<text x="24" y="296" font-family="Arial, sans-serif" font-size="11" fill="#2c3138">marketplace.list</text>
<rect x="210" y="274" width="112" height="30" rx="2" fill="#e7ece6" stroke="#6f7f69" stroke-width="1"/>
<text x="266" y="294" font-family="Arial, sans-serif" font-size="11" font-weight="700" text-anchor="middle" fill="#20242a">ALLOW</text>
<rect x="326" y="274" width="112" height="30" rx="2" fill="#ead9cf" stroke="#8a6258" stroke-width="1"/>
<text x="382" y="294" font-family="Arial, sans-serif" font-size="11" font-weight="700" text-anchor="middle" fill="#20242a">RISK</text>
<rect x="442" y="274" width="112" height="30" rx="2" fill="#ead9cf" stroke="#8a6258" stroke-width="1"/>
<text x="498" y="294" font-family="Arial, sans-serif" font-size="11" font-weight="700" text-anchor="middle" fill="#20242a">RISK</text>
<rect x="558" y="274" width="112" height="30" rx="2" fill="#e7ece6" stroke="#6f7f69" stroke-width="1"/>
<text x="614" y="294" font-family="Arial, sans-serif" font-size="11" font-weight="700" text-anchor="middle" fill="#20242a">ALLOW</text>
<text x="24" y="374" font-family="Arial, sans-serif" font-size="15" font-weight="700" fill="#20242a">Proposal</text>
<text x="268" y="374" font-family="Arial, sans-serif" font-size="11" font-weight="700" text-anchor="middle" fill="#2c3138">ACTIVE</text>
<text x="384" y="374" font-family="Arial, sans-serif" font-size="11" font-weight="700" text-anchor="middle" fill="#2c3138">PENDING_OUT</text>
<text x="500" y="374" font-family="Arial, sans-serif" font-size="11" font-weight="700" text-anchor="middle" fill="#2c3138">PENDING_IN</text>
<text x="616" y="374" font-family="Arial, sans-serif" font-size="11" font-weight="700" text-anchor="middle" fill="#2c3138">FINALIZED</text>
<text x="24" y="412" font-family="Arial, sans-serif" font-size="11" fill="#2c3138">transferFrom</text>
<rect x="210" y="390" width="112" height="30" rx="2" fill="#e7ece6" stroke="#6f7f69" stroke-width="1"/>
<text x="266" y="410" font-family="Arial, sans-serif" font-size="11" font-weight="700" text-anchor="middle" fill="#20242a">ALLOW</text>
<rect x="326" y="390" width="112" height="30" rx="2" fill="#e7ece6" stroke="#6f7f69" stroke-width="1"/>
<text x="382" y="410" font-family="Arial, sans-serif" font-size="11" font-weight="700" text-anchor="middle" fill="#20242a">BLOCK</text>
<rect x="442" y="390" width="112" height="30" rx="2" fill="#e7ece6" stroke="#6f7f69" stroke-width="1"/>
<text x="498" y="410" font-family="Arial, sans-serif" font-size="11" font-weight="700" text-anchor="middle" fill="#20242a">BLOCK</text>
<rect x="558" y="390" width="112" height="30" rx="2" fill="#e7ece6" stroke="#6f7f69" stroke-width="1"/>
<text x="614" y="410" font-family="Arial, sans-serif" font-size="11" font-weight="700" text-anchor="middle" fill="#20242a">ALLOW</text>
<text x="24" y="446" font-family="Arial, sans-serif" font-size="11" fill="#2c3138">safeTransferFrom</text>
<rect x="210" y="424" width="112" height="30" rx="2" fill="#e7ece6" stroke="#6f7f69" stroke-width="1"/>
<text x="266" y="444" font-family="Arial, sans-serif" font-size="11" font-weight="700" text-anchor="middle" fill="#20242a">ALLOW</text>
<rect x="326" y="424" width="112" height="30" rx="2" fill="#e7ece6" stroke="#6f7f69" stroke-width="1"/>
<text x="382" y="444" font-family="Arial, sans-serif" font-size="11" font-weight="700" text-anchor="middle" fill="#20242a">BLOCK</text>
<rect x="442" y="424" width="112" height="30" rx="2" fill="#e7ece6" stroke="#6f7f69" stroke-width="1"/>
<text x="498" y="444" font-family="Arial, sans-serif" font-size="11" font-weight="700" text-anchor="middle" fill="#20242a">BLOCK</text>
<rect x="558" y="424" width="112" height="30" rx="2" fill="#e7ece6" stroke="#6f7f69" stroke-width="1"/>
<text x="614" y="444" font-family="Arial, sans-serif" font-size="11" font-weight="700" text-anchor="middle" fill="#20242a">ALLOW</text>
<text x="24" y="480" font-family="Arial, sans-serif" font-size="11" fill="#2c3138">approve</text>
<rect x="210" y="458" width="112" height="30" rx="2" fill="#e7ece6" stroke="#6f7f69" stroke-width="1"/>
<text x="266" y="478" font-family="Arial, sans-serif" font-size="11" font-weight="700" text-anchor="middle" fill="#20242a">ALLOW</text>
<rect x="326" y="458" width="112" height="30" rx="2" fill="#e7ece6" stroke="#6f7f69" stroke-width="1"/>
<text x="382" y="478" font-family="Arial, sans-serif" font-size="11" font-weight="700" text-anchor="middle" fill="#20242a">BLOCK</text>
<rect x="442" y="458" width="112" height="30" rx="2" fill="#e7ece6" stroke="#6f7f69" stroke-width="1"/>
<text x="498" y="478" font-family="Arial, sans-serif" font-size="11" font-weight="700" text-anchor="middle" fill="#20242a">BLOCK</text>
<rect x="558" y="458" width="112" height="30" rx="2" fill="#e7ece6" stroke="#6f7f69" stroke-width="1"/>
<text x="614" y="478" font-family="Arial, sans-serif" font-size="11" font-weight="700" text-anchor="middle" fill="#20242a">ALLOW</text>
<text x="24" y="514" font-family="Arial, sans-serif" font-size="11" fill="#2c3138">setApprovalForAll</text>
<rect x="210" y="492" width="112" height="30" rx="2" fill="#e7ece6" stroke="#6f7f69" stroke-width="1"/>
<text x="266" y="512" font-family="Arial, sans-serif" font-size="11" font-weight="700" text-anchor="middle" fill="#20242a">ALLOW</text>
<rect x="326" y="492" width="112" height="30" rx="2" fill="#e7ece6" stroke="#6f7f69" stroke-width="1"/>
<text x="382" y="512" font-family="Arial, sans-serif" font-size="11" font-weight="700" text-anchor="middle" fill="#20242a">BLOCK</text>
<rect x="442" y="492" width="112" height="30" rx="2" fill="#e7ece6" stroke="#6f7f69" stroke-width="1"/>
<text x="498" y="512" font-family="Arial, sans-serif" font-size="11" font-weight="700" text-anchor="middle" fill="#20242a">BLOCK</text>
<rect x="558" y="492" width="112" height="30" rx="2" fill="#e7ece6" stroke="#6f7f69" stroke-width="1"/>
<text x="614" y="512" font-family="Arial, sans-serif" font-size="11" font-weight="700" text-anchor="middle" fill="#20242a">ALLOW</text>
<text x="24" y="548" font-family="Arial, sans-serif" font-size="11" fill="#2c3138">list(tokenId)</text>
<rect x="210" y="526" width="112" height="30" rx="2" fill="#e7ece6" stroke="#6f7f69" stroke-width="1"/>
<text x="266" y="546" font-family="Arial, sans-serif" font-size="11" font-weight="700" text-anchor="middle" fill="#20242a">ALLOW</text>
<rect x="326" y="526" width="112" height="30" rx="2" fill="#e7ece6" stroke="#6f7f69" stroke-width="1"/>
<text x="382" y="546" font-family="Arial, sans-serif" font-size="11" font-weight="700" text-anchor="middle" fill="#20242a">BLOCK</text>
<rect x="442" y="526" width="112" height="30" rx="2" fill="#e7ece6" stroke="#6f7f69" stroke-width="1"/>
<text x="498" y="546" font-family="Arial, sans-serif" font-size="11" font-weight="700" text-anchor="middle" fill="#20242a">BLOCK</text>
<rect x="558" y="526" width="112" height="30" rx="2" fill="#e7ece6" stroke="#6f7f69" stroke-width="1"/>
<text x="614" y="546" font-family="Arial, sans-serif" font-size="11" font-weight="700" text-anchor="middle" fill="#20242a">ALLOW</text>
<text x="24" y="582" font-family="Arial, sans-serif" font-size="11" fill="#2c3138">marketplace.list</text>
<rect x="210" y="560" width="112" height="30" rx="2" fill="#e7ece6" stroke="#6f7f69" stroke-width="1"/>
<text x="266" y="580" font-family="Arial, sans-serif" font-size="11" font-weight="700" text-anchor="middle" fill="#20242a">ALLOW</text>
<rect x="326" y="560" width="112" height="30" rx="2" fill="#e7ece6" stroke="#6f7f69" stroke-width="1"/>
<text x="382" y="580" font-family="Arial, sans-serif" font-size="11" font-weight="700" text-anchor="middle" fill="#20242a">BLOCK</text>
<rect x="442" y="560" width="112" height="30" rx="2" fill="#e7ece6" stroke="#6f7f69" stroke-width="1"/>
<text x="498" y="580" font-family="Arial, sans-serif" font-size="11" font-weight="700" text-anchor="middle" fill="#20242a">BLOCK</text>
<rect x="558" y="560" width="112" height="30" rx="2" fill="#e7ece6" stroke="#6f7f69" stroke-width="1"/>
<text x="614" y="580" font-family="Arial, sans-serif" font-size="11" font-weight="700" text-anchor="middle" fill="#20242a">ALLOW</text>
<rect x="24" y="608" width="12" height="12" fill="#ead9cf" stroke="#8a6258"/><text x="42" y="618" font-family="Arial, sans-serif" font-size="11" fill="#333">hazard remains executable</text>
<rect x="216" y="608" width="12" height="12" fill="#e7ece6" stroke="#6f7f69"/><text x="234" y="618" font-family="Arial, sans-serif" font-size="11" fill="#333">safe outcome</text>
</svg>
