<svg xmlns="http://www.w3.org/2000/svg" width="654" height="636" viewBox="0 0 654 636">
<rect width="100%" height="100%" fill="#ffffff"/>
<text x="24" y="28" font-family="Arial, sans-serif" font-size="20" font-weight="700" fill="#111">Hazardous NFT Operation Matrix</text>
<text x="24" y="50" font-family="Arial, sans-serif" font-size="12" fill="#444">Red indicates a hazardous pending operation that remains executable; green indicates the intended safety outcome.</text>
<text x="24" y="88" font-family="Arial, sans-serif" font-size="16" font-weight="700" fill="#111">Baseline: no pending-state guard</text>
<text x="208" y="88" font-family="Arial, sans-serif" font-size="11" font-weight="700" text-anchor="middle" fill="#222">ACTIVE</text>
<text x="324" y="88" font-family="Arial, sans-serif" font-size="11" font-weight="700" text-anchor="middle" fill="#222">PENDING_OUT</text>
<text x="440" y="88" font-family="Arial, sans-serif" font-size="11" font-weight="700" text-anchor="middle" fill="#222">PENDING_IN</text>
<text x="556" y="88" font-family="Arial, sans-serif" font-size="11" font-weight="700" text-anchor="middle" fill="#222">FINALIZED</text>
<text x="24" y="126" font-family="Arial, sans-serif" font-size="11" fill="#222">transferFrom</text>
<rect x="150" y="104" width="112" height="30" rx="4" fill="#2e7d32"/>
<text x="206" y="124" font-family="Arial, sans-serif" font-size="11" font-weight="700" text-anchor="middle" fill="#fff">ALLOW</text>
<rect x="266" y="104" width="112" height="30" rx="4" fill="#c62828"/>
<text x="322" y="124" font-family="Arial, sans-serif" font-size="11" font-weight="700" text-anchor="middle" fill="#fff">RISK</text>
<rect x="382" y="104" width="112" height="30" rx="4" fill="#c62828"/>
<text x="438" y="124" font-family="Arial, sans-serif" font-size="11" font-weight="700" text-anchor="middle" fill="#fff">RISK</text>
<rect x="498" y="104" width="112" height="30" rx="4" fill="#2e7d32"/>
<text x="554" y="124" font-family="Arial, sans-serif" font-size="11" font-weight="700" text-anchor="middle" fill="#fff">ALLOW</text>
<text x="24" y="160" font-family="Arial, sans-serif" font-size="11" fill="#222">safeTransferFrom</text>
<rect x="150" y="138" width="112" height="30" rx="4" fill="#2e7d32"/>
<text x="206" y="158" font-family="Arial, sans-serif" font-size="11" font-weight="700" text-anchor="middle" fill="#fff">ALLOW</text>
<rect x="266" y="138" width="112" height="30" rx="4" fill="#c62828"/>
<text x="322" y="158" font-family="Arial, sans-serif" font-size="11" font-weight="700" text-anchor="middle" fill="#fff">RISK</text>
<rect x="382" y="138" width="112" height="30" rx="4" fill="#c62828"/>
<text x="438" y="158" font-family="Arial, sans-serif" font-size="11" font-weight="700" text-anchor="middle" fill="#fff">RISK</text>
<rect x="498" y="138" width="112" height="30" rx="4" fill="#2e7d32"/>
<text x="554" y="158" font-family="Arial, sans-serif" font-size="11" font-weight="700" text-anchor="middle" fill="#fff">ALLOW</text>
<text x="24" y="194" font-family="Arial, sans-serif" font-size="11" fill="#222">approve</text>
<rect x="150" y="172" width="112" height="30" rx="4" fill="#2e7d32"/>
<text x="206" y="192" font-family="Arial, sans-serif" font-size="11" font-weight="700" text-anchor="middle" fill="#fff">ALLOW</text>
<rect x="266" y="172" width="112" height="30" rx="4" fill="#c62828"/>
<text x="322" y="192" font-family="Arial, sans-serif" font-size="11" font-weight="700" text-anchor="middle" fill="#fff">RISK</text>
<rect x="382" y="172" width="112" height="30" rx="4" fill="#c62828"/>
<text x="438" y="192" font-family="Arial, sans-serif" font-size="11" font-weight="700" text-anchor="middle" fill="#fff">RISK</text>
<rect x="498" y="172" width="112" height="30" rx="4" fill="#2e7d32"/>
<text x="554" y="192" font-family="Arial, sans-serif" font-size="11" font-weight="700" text-anchor="middle" fill="#fff">ALLOW</text>
<text x="24" y="228" font-family="Arial, sans-serif" font-size="11" fill="#222">setApprovalForAll</text>
<rect x="150" y="206" width="112" height="30" rx="4" fill="#2e7d32"/>
<text x="206" y="226" font-family="Arial, sans-serif" font-size="11" font-weight="700" text-anchor="middle" fill="#fff">ALLOW</text>
<rect x="266" y="206" width="112" height="30" rx="4" fill="#c62828"/>
<text x="322" y="226" font-family="Arial, sans-serif" font-size="11" font-weight="700" text-anchor="middle" fill="#fff">RISK</text>
<rect x="382" y="206" width="112" height="30" rx="4" fill="#c62828"/>
<text x="438" y="226" font-family="Arial, sans-serif" font-size="11" font-weight="700" text-anchor="middle" fill="#fff">RISK</text>
<rect x="498" y="206" width="112" height="30" rx="4" fill="#2e7d32"/>
<text x="554" y="226" font-family="Arial, sans-serif" font-size="11" font-weight="700" text-anchor="middle" fill="#fff">ALLOW</text>
<text x="24" y="262" font-family="Arial, sans-serif" font-size="11" fill="#222">list(tokenId)</text>
<rect x="150" y="240" width="112" height="30" rx="4" fill="#2e7d32"/>
<text x="206" y="260" font-family="Arial, sans-serif" font-size="11" font-weight="700" text-anchor="middle" fill="#fff">ALLOW</text>
<rect x="266" y="240" width="112" height="30" rx="4" fill="#c62828"/>
<text x="322" y="260" font-family="Arial, sans-serif" font-size="11" font-weight="700" text-anchor="middle" fill="#fff">RISK</text>
<rect x="382" y="240" width="112" height="30" rx="4" fill="#c62828"/>
<text x="438" y="260" font-family="Arial, sans-serif" font-size="11" font-weight="700" text-anchor="middle" fill="#fff">RISK</text>
<rect x="498" y="240" width="112" height="30" rx="4" fill="#2e7d32"/>
<text x="554" y="260" font-family="Arial, sans-serif" font-size="11" font-weight="700" text-anchor="middle" fill="#fff">ALLOW</text>
<text x="24" y="296" font-family="Arial, sans-serif" font-size="11" fill="#222">marketplace.list</text>
<rect x="150" y="274" width="112" height="30" rx="4" fill="#2e7d32"/>
<text x="206" y="294" font-family="Arial, sans-serif" font-size="11" font-weight="700" text-anchor="middle" fill="#fff">ALLOW</text>
<rect x="266" y="274" width="112" height="30" rx="4" fill="#c62828"/>
<text x="322" y="294" font-family="Arial, sans-serif" font-size="11" font-weight="700" text-anchor="middle" fill="#fff">RISK</text>
<rect x="382" y="274" width="112" height="30" rx="4" fill="#c62828"/>
<text x="438" y="294" font-family="Arial, sans-serif" font-size="11" font-weight="700" text-anchor="middle" fill="#fff">RISK</text>
<rect x="498" y="274" width="112" height="30" rx="4" fill="#2e7d32"/>
<text x="554" y="294" font-family="Arial, sans-serif" font-size="11" font-weight="700" text-anchor="middle" fill="#fff">ALLOW</text>
<text x="24" y="374" font-family="Arial, sans-serif" font-size="16" font-weight="700" fill="#111">Proposal: ownership-state guard</text>
<text x="208" y="374" font-family="Arial, sans-serif" font-size="11" font-weight="700" text-anchor="middle" fill="#222">ACTIVE</text>
<text x="324" y="374" font-family="Arial, sans-serif" font-size="11" font-weight="700" text-anchor="middle" fill="#222">PENDING_OUT</text>
<text x="440" y="374" font-family="Arial, sans-serif" font-size="11" font-weight="700" text-anchor="middle" fill="#222">PENDING_IN</text>
<text x="556" y="374" font-family="Arial, sans-serif" font-size="11" font-weight="700" text-anchor="middle" fill="#222">FINALIZED</text>
<text x="24" y="412" font-family="Arial, sans-serif" font-size="11" fill="#222">transferFrom</text>
<rect x="150" y="390" width="112" height="30" rx="4" fill="#2e7d32"/>
<text x="206" y="410" font-family="Arial, sans-serif" font-size="11" font-weight="700" text-anchor="middle" fill="#fff">ALLOW</text>
<rect x="266" y="390" width="112" height="30" rx="4" fill="#2e7d32"/>
<text x="322" y="410" font-family="Arial, sans-serif" font-size="11" font-weight="700" text-anchor="middle" fill="#fff">BLOCK</text>
<rect x="382" y="390" width="112" height="30" rx="4" fill="#2e7d32"/>
<text x="438" y="410" font-family="Arial, sans-serif" font-size="11" font-weight="700" text-anchor="middle" fill="#fff">BLOCK</text>
<rect x="498" y="390" width="112" height="30" rx="4" fill="#2e7d32"/>
<text x="554" y="410" font-family="Arial, sans-serif" font-size="11" font-weight="700" text-anchor="middle" fill="#fff">ALLOW</text>
<text x="24" y="446" font-family="Arial, sans-serif" font-size="11" fill="#222">safeTransferFrom</text>
<rect x="150" y="424" width="112" height="30" rx="4" fill="#2e7d32"/>
<text x="206" y="444" font-family="Arial, sans-serif" font-size="11" font-weight="700" text-anchor="middle" fill="#fff">ALLOW</text>
<rect x="266" y="424" width="112" height="30" rx="4" fill="#2e7d32"/>
<text x="322" y="444" font-family="Arial, sans-serif" font-size="11" font-weight="700" text-anchor="middle" fill="#fff">BLOCK</text>
<rect x="382" y="424" width="112" height="30" rx="4" fill="#2e7d32"/>
<text x="438" y="444" font-family="Arial, sans-serif" font-size="11" font-weight="700" text-anchor="middle" fill="#fff">BLOCK</text>
<rect x="498" y="424" width="112" height="30" rx="4" fill="#2e7d32"/>
<text x="554" y="444" font-family="Arial, sans-serif" font-size="11" font-weight="700" text-anchor="middle" fill="#fff">ALLOW</text>
<text x="24" y="480" font-family="Arial, sans-serif" font-size="11" fill="#222">approve</text>
<rect x="150" y="458" width="112" height="30" rx="4" fill="#2e7d32"/>
<text x="206" y="478" font-family="Arial, sans-serif" font-size="11" font-weight="700" text-anchor="middle" fill="#fff">ALLOW</text>
<rect x="266" y="458" width="112" height="30" rx="4" fill="#2e7d32"/>
<text x="322" y="478" font-family="Arial, sans-serif" font-size="11" font-weight="700" text-anchor="middle" fill="#fff">BLOCK</text>
<rect x="382" y="458" width="112" height="30" rx="4" fill="#2e7d32"/>
<text x="438" y="478" font-family="Arial, sans-serif" font-size="11" font-weight="700" text-anchor="middle" fill="#fff">BLOCK</text>
<rect x="498" y="458" width="112" height="30" rx="4" fill="#2e7d32"/>
<text x="554" y="478" font-family="Arial, sans-serif" font-size="11" font-weight="700" text-anchor="middle" fill="#fff">ALLOW</text>
<text x="24" y="514" font-family="Arial, sans-serif" font-size="11" fill="#222">setApprovalForAll</text>
<rect x="150" y="492" width="112" height="30" rx="4" fill="#2e7d32"/>
<text x="206" y="512" font-family="Arial, sans-serif" font-size="11" font-weight="700" text-anchor="middle" fill="#fff">ALLOW</text>
<rect x="266" y="492" width="112" height="30" rx="4" fill="#2e7d32"/>
<text x="322" y="512" font-family="Arial, sans-serif" font-size="11" font-weight="700" text-anchor="middle" fill="#fff">BLOCK</text>
<rect x="382" y="492" width="112" height="30" rx="4" fill="#2e7d32"/>
<text x="438" y="512" font-family="Arial, sans-serif" font-size="11" font-weight="700" text-anchor="middle" fill="#fff">BLOCK</text>
<rect x="498" y="492" width="112" height="30" rx="4" fill="#2e7d32"/>
<text x="554" y="512" font-family="Arial, sans-serif" font-size="11" font-weight="700" text-anchor="middle" fill="#fff">ALLOW</text>
<text x="24" y="548" font-family="Arial, sans-serif" font-size="11" fill="#222">list(tokenId)</text>
<rect x="150" y="526" width="112" height="30" rx="4" fill="#2e7d32"/>
<text x="206" y="546" font-family="Arial, sans-serif" font-size="11" font-weight="700" text-anchor="middle" fill="#fff">ALLOW</text>
<rect x="266" y="526" width="112" height="30" rx="4" fill="#2e7d32"/>
<text x="322" y="546" font-family="Arial, sans-serif" font-size="11" font-weight="700" text-anchor="middle" fill="#fff">BLOCK</text>
<rect x="382" y="526" width="112" height="30" rx="4" fill="#2e7d32"/>
<text x="438" y="546" font-family="Arial, sans-serif" font-size="11" font-weight="700" text-anchor="middle" fill="#fff">BLOCK</text>
<rect x="498" y="526" width="112" height="30" rx="4" fill="#2e7d32"/>
<text x="554" y="546" font-family="Arial, sans-serif" font-size="11" font-weight="700" text-anchor="middle" fill="#fff">ALLOW</text>
<text x="24" y="582" font-family="Arial, sans-serif" font-size="11" fill="#222">marketplace.list</text>
<rect x="150" y="560" width="112" height="30" rx="4" fill="#2e7d32"/>
<text x="206" y="580" font-family="Arial, sans-serif" font-size="11" font-weight="700" text-anchor="middle" fill="#fff">ALLOW</text>
<rect x="266" y="560" width="112" height="30" rx="4" fill="#2e7d32"/>
<text x="322" y="580" font-family="Arial, sans-serif" font-size="11" font-weight="700" text-anchor="middle" fill="#fff">BLOCK</text>
<rect x="382" y="560" width="112" height="30" rx="4" fill="#2e7d32"/>
<text x="438" y="580" font-family="Arial, sans-serif" font-size="11" font-weight="700" text-anchor="middle" fill="#fff">BLOCK</text>
<rect x="498" y="560" width="112" height="30" rx="4" fill="#2e7d32"/>
<text x="554" y="580" font-family="Arial, sans-serif" font-size="11" font-weight="700" text-anchor="middle" fill="#fff">ALLOW</text>
<rect x="24" y="608" width="12" height="12" fill="#c62828"/><text x="42" y="618" font-family="Arial, sans-serif" font-size="11" fill="#333">hazard remains executable</text>
<rect x="216" y="608" width="12" height="12" fill="#2e7d32"/><text x="234" y="618" font-family="Arial, sans-serif" font-size="11" fill="#333">safe outcome</text>
</svg>
