<svg xmlns="http://www.w3.org/2000/svg" width="900" height="300" viewBox="0 0 900 300">
<rect width="100%" height="100%" fill="#ffffff"/>
<text x="24" y="30" font-family="Arial, sans-serif" font-size="20" font-weight="700" fill="#111">Pending Window Attack Surface</text>
<text x="24" y="52" font-family="Arial, sans-serif" font-size="12" fill="#444">TIE-style timing makes the pending window actionable; the proposal removes the executable operation inside that window.</text>
<text x="24" y="123" font-family="Arial, sans-serif" font-size="15" font-weight="700" fill="#111">Baseline</text>
<line x1="120" y1="118" x2="760" y2="118" stroke="#555" stroke-width="2"/>
<circle cx="120" cy="118" r="7" fill="#333"/>
<text x="120" y="148" font-family="Arial, sans-serif" font-size="11" text-anchor="middle" fill="#333">bridgeOut</text>
<circle cx="320" cy="118" r="7" fill="#333"/>
<text x="320" y="148" font-family="Arial, sans-serif" font-size="11" text-anchor="middle" fill="#333">pending window</text>
<circle cx="560" cy="118" r="7" fill="#333"/>
<text x="560" y="148" font-family="Arial, sans-serif" font-size="11" text-anchor="middle" fill="#333">hazardous op</text>
<circle cx="760" cy="118" r="7" fill="#333"/>
<text x="760" y="148" font-family="Arial, sans-serif" font-size="11" text-anchor="middle" fill="#333">finalizeIn</text>
<rect x="358" y="94" width="250" height="28" rx="5" fill="#c62828"/>
<text x="483" y="112" font-family="Arial, sans-serif" font-size="12" font-weight="700" text-anchor="middle" fill="#fff">transfer / approve / listing succeeds</text>
<text x="24" y="223" font-family="Arial, sans-serif" font-size="15" font-weight="700" fill="#111">Proposal</text>
<line x1="120" y1="218" x2="760" y2="218" stroke="#555" stroke-width="2"/>
<circle cx="120" cy="218" r="7" fill="#333"/>
<text x="120" y="248" font-family="Arial, sans-serif" font-size="11" text-anchor="middle" fill="#333">bridgeOut</text>
<circle cx="320" cy="218" r="7" fill="#333"/>
<text x="320" y="248" font-family="Arial, sans-serif" font-size="11" text-anchor="middle" fill="#333">pending window</text>
<circle cx="560" cy="218" r="7" fill="#333"/>
<text x="560" y="248" font-family="Arial, sans-serif" font-size="11" text-anchor="middle" fill="#333">hazardous op</text>
<circle cx="760" cy="218" r="7" fill="#333"/>
<text x="760" y="248" font-family="Arial, sans-serif" font-size="11" text-anchor="middle" fill="#333">finalizeIn</text>
<rect x="358" y="194" width="250" height="28" rx="5" fill="#2e7d32"/>
<text x="483" y="212" font-family="Arial, sans-serif" font-size="12" font-weight="700" text-anchor="middle" fill="#fff">operation reverts until finalization</text>
</svg>
