<svg xmlns="http://www.w3.org/2000/svg" width="820" height="370" viewBox="0 0 820 370">
<rect width="100%" height="100%" fill="#fff"/>
<text x="24" y="28" font-family="Arial, sans-serif" font-size="20" font-weight="700" fill="#111">State-Access Overhead Model</text>
<text x="24" y="48" font-family="Arial, sans-serif" font-size="12" fill="#444">The guard adds one state read to each hazardous operation; writes occur only on bridge state transitions.</text>
<line x1="80" y1="274" x2="780" y2="274" stroke="#333"/>
<line x1="80" y1="54" x2="80" y2="274" stroke="#333"/>
<line x1="76" y1="274" x2="780" y2="274" stroke="#e0e0e0"/>
<text x="68" y="278" font-family="Arial, sans-serif" font-size="10" text-anchor="end" fill="#555">0</text>
<line x1="76" y1="219" x2="780" y2="219" stroke="#e0e0e0"/>
<text x="68" y="223" font-family="Arial, sans-serif" font-size="10" text-anchor="end" fill="#555">1</text>
<line x1="76" y1="164" x2="780" y2="164" stroke="#e0e0e0"/>
<text x="68" y="168" font-family="Arial, sans-serif" font-size="10" text-anchor="end" fill="#555">2</text>
<line x1="76" y1="109" x2="780" y2="109" stroke="#e0e0e0"/>
<text x="68" y="113" font-family="Arial, sans-serif" font-size="10" text-anchor="end" fill="#555">3</text>
<line x1="76" y1="54" x2="780" y2="54" stroke="#e0e0e0"/>
<text x="68" y="58" font-family="Arial, sans-serif" font-size="10" text-anchor="end" fill="#555">4</text>
<rect x="108" y="219" width="56" height="55" fill="#1976d2"/>
<rect x="108" y="219" width="56" height="0" fill="#ef6c00"/>
<text x="136" y="213" font-family="Arial, sans-serif" font-size="11" font-weight="700" text-anchor="middle" fill="#111">1</text>
<text x="136" y="292" font-family="Arial, sans-serif" font-size="10" text-anchor="middle" fill="#333">transferFrom</text>
<rect x="206" y="219" width="56" height="55" fill="#1976d2"/>
<rect x="206" y="219" width="56" height="0" fill="#ef6c00"/>
<text x="234" y="213" font-family="Arial, sans-serif" font-size="11" font-weight="700" text-anchor="middle" fill="#111">1</text>
<text x="234" y="292" font-family="Arial, sans-serif" font-size="10" text-anchor="middle" fill="#333">safeTransferFrom</text>
<rect x="304" y="219" width="56" height="55" fill="#1976d2"/>
<rect x="304" y="219" width="56" height="0" fill="#ef6c00"/>
<text x="332" y="213" font-family="Arial, sans-serif" font-size="11" font-weight="700" text-anchor="middle" fill="#111">1</text>
<text x="332" y="292" font-family="Arial, sans-serif" font-size="10" text-anchor="middle" fill="#333">approve</text>
<rect x="402" y="219" width="56" height="55" fill="#1976d2"/>
<rect x="402" y="219" width="56" height="0" fill="#ef6c00"/>
<text x="430" y="213" font-family="Arial, sans-serif" font-size="11" font-weight="700" text-anchor="middle" fill="#111">1</text>
<text x="430" y="292" font-family="Arial, sans-serif" font-size="10" text-anchor="middle" fill="#333">setApprovalForAll</text>
<rect x="500" y="219" width="56" height="55" fill="#1976d2"/>
<rect x="500" y="219" width="56" height="0" fill="#ef6c00"/>
<text x="528" y="213" font-family="Arial, sans-serif" font-size="11" font-weight="700" text-anchor="middle" fill="#111">1</text>
<text x="528" y="292" font-family="Arial, sans-serif" font-size="10" text-anchor="middle" fill="#333">list</text>
<rect x="598" y="219" width="56" height="55" fill="#1976d2"/>
<rect x="598" y="109" width="56" height="110" fill="#ef6c00"/>
<text x="626" y="103" font-family="Arial, sans-serif" font-size="11" font-weight="700" text-anchor="middle" fill="#111">3</text>
<text x="626" y="292" font-family="Arial, sans-serif" font-size="10" text-anchor="middle" fill="#333">bridgeOut</text>
<rect x="696" y="219" width="56" height="55" fill="#1976d2"/>
<rect x="696" y="54" width="56" height="165" fill="#ef6c00"/>
<text x="724" y="48" font-family="Arial, sans-serif" font-size="11" font-weight="700" text-anchor="middle" fill="#111">4</text>
<text x="724" y="292" font-family="Arial, sans-serif" font-size="10" text-anchor="middle" fill="#333">finalizeIn</text>
<rect x="606" y="30" width="12" height="12" fill="#1976d2"/><text x="624" y="40" font-family="Arial, sans-serif" font-size="11" fill="#333">extra reads</text>
<rect x="706" y="30" width="12" height="12" fill="#ef6c00"/><text x="724" y="40" font-family="Arial, sans-serif" font-size="11" fill="#333">extra writes</text>
</svg>
