<svg xmlns="http://www.w3.org/2000/svg" width="820" height="370" viewBox="0 0 820 370">
<defs><pattern id="writeHatch" width="6" height="6" patternUnits="userSpaceOnUse" patternTransform="rotate(45)"><line x1="0" y1="0" x2="0" y2="6" stroke="#6b625a" stroke-width="1"/></pattern></defs>
<rect width="100%" height="100%" fill="#fbfaf8"/>
<text x="24" y="28" font-family="Arial, sans-serif" font-size="19" font-weight="700" fill="#20242a">State-Access Overhead Model</text>
<text x="24" y="48" font-family="Arial, sans-serif" font-size="12" fill="#5d6470">Hazardous operations add one state read; bridge transitions perform the writes.</text>
<line x1="80" y1="274" x2="780" y2="274" stroke="#2c3138"/>
<line x1="80" y1="54" x2="80" y2="274" stroke="#2c3138"/>
<line x1="76" y1="274" x2="780" y2="274" stroke="#dedbd4"/>
<text x="68" y="278" font-family="Arial, sans-serif" font-size="10" text-anchor="end" fill="#5d6470">0</text>
<line x1="76" y1="219" x2="780" y2="219" stroke="#dedbd4"/>
<text x="68" y="223" font-family="Arial, sans-serif" font-size="10" text-anchor="end" fill="#5d6470">1</text>
<line x1="76" y1="164" x2="780" y2="164" stroke="#dedbd4"/>
<text x="68" y="168" font-family="Arial, sans-serif" font-size="10" text-anchor="end" fill="#5d6470">2</text>
<line x1="76" y1="109" x2="780" y2="109" stroke="#dedbd4"/>
<text x="68" y="113" font-family="Arial, sans-serif" font-size="10" text-anchor="end" fill="#5d6470">3</text>
<line x1="76" y1="54" x2="780" y2="54" stroke="#dedbd4"/>
<text x="68" y="58" font-family="Arial, sans-serif" font-size="10" text-anchor="end" fill="#5d6470">4</text>
<rect x="108" y="219" width="56" height="55" fill="#c9ced8" stroke="#677085"/>
<rect x="108" y="219" width="56" height="0" fill="#e6dfd5" stroke="#6b625a"/>
<text x="136" y="213" font-family="Arial, sans-serif" font-size="11" font-weight="700" text-anchor="middle" fill="#111">1</text>
<text x="136" y="292" font-family="Arial, sans-serif" font-size="10" text-anchor="middle" fill="#333">transferFrom</text>
<rect x="206" y="219" width="56" height="55" fill="#c9ced8" stroke="#677085"/>
<rect x="206" y="219" width="56" height="0" fill="#e6dfd5" stroke="#6b625a"/>
<text x="234" y="213" font-family="Arial, sans-serif" font-size="11" font-weight="700" text-anchor="middle" fill="#111">1</text>
<text x="234" y="292" font-family="Arial, sans-serif" font-size="10" text-anchor="middle" fill="#333">safeTransferFrom</text>
<rect x="304" y="219" width="56" height="55" fill="#c9ced8" stroke="#677085"/>
<rect x="304" y="219" width="56" height="0" fill="#e6dfd5" stroke="#6b625a"/>
<text x="332" y="213" font-family="Arial, sans-serif" font-size="11" font-weight="700" text-anchor="middle" fill="#111">1</text>
<text x="332" y="292" font-family="Arial, sans-serif" font-size="10" text-anchor="middle" fill="#333">approve</text>
<rect x="402" y="219" width="56" height="55" fill="#c9ced8" stroke="#677085"/>
<rect x="402" y="219" width="56" height="0" fill="#e6dfd5" stroke="#6b625a"/>
<text x="430" y="213" font-family="Arial, sans-serif" font-size="11" font-weight="700" text-anchor="middle" fill="#111">1</text>
<text x="430" y="292" font-family="Arial, sans-serif" font-size="10" text-anchor="middle" fill="#333">setApprovalForAll</text>
<rect x="500" y="219" width="56" height="55" fill="#c9ced8" stroke="#677085"/>
<rect x="500" y="219" width="56" height="0" fill="#e6dfd5" stroke="#6b625a"/>
<text x="528" y="213" font-family="Arial, sans-serif" font-size="11" font-weight="700" text-anchor="middle" fill="#111">1</text>
<text x="528" y="292" font-family="Arial, sans-serif" font-size="10" text-anchor="middle" fill="#333">list</text>
<rect x="598" y="219" width="56" height="55" fill="#c9ced8" stroke="#677085"/>
<rect x="598" y="109" width="56" height="110" fill="#e6dfd5" stroke="#6b625a"/>
<rect x="598" y="109" width="56" height="110" fill="url(#writeHatch)" opacity="0.45"/>
<text x="626" y="103" font-family="Arial, sans-serif" font-size="11" font-weight="700" text-anchor="middle" fill="#111">3</text>
<text x="626" y="292" font-family="Arial, sans-serif" font-size="10" text-anchor="middle" fill="#333">bridgeOut</text>
<rect x="696" y="219" width="56" height="55" fill="#c9ced8" stroke="#677085"/>
<rect x="696" y="54" width="56" height="165" fill="#e6dfd5" stroke="#6b625a"/>
<rect x="696" y="54" width="56" height="165" fill="url(#writeHatch)" opacity="0.45"/>
<text x="724" y="48" font-family="Arial, sans-serif" font-size="11" font-weight="700" text-anchor="middle" fill="#111">4</text>
<text x="724" y="292" font-family="Arial, sans-serif" font-size="10" text-anchor="middle" fill="#333">finalizeIn</text>
<rect x="606" y="30" width="12" height="12" fill="#c9ced8" stroke="#677085"/><text x="624" y="40" font-family="Arial, sans-serif" font-size="11" fill="#333">extra reads</text>
<rect x="706" y="30" width="12" height="12" fill="#e6dfd5" stroke="#6b625a"/><text x="724" y="40" font-family="Arial, sans-serif" font-size="11" fill="#333">extra writes</text>
</svg>
